<svg xmlns="http://www.w3.org/2000/svg" width="98" height="74"><path fill="#B6BB2D" d="M42.19 41.319l-5.66-8.233-1.864 9.876v.004l-7.355-6.842.065 10.064-8.521-5.146 2.187 9.82-9.389-3.245 4.148 9.141-9.845-1.207 5.932 8.041-9.874.851 7.455 6.67L0 74h92.149l-9.463-2.887 7.455-6.454-9.876-.96 5.932-8.093-9.841 1.177.002-.007 4.064-9.172-9.401 3.293 2.263-9.952-8.519 5.202.614-10.315-7.959 5.991-1.71-8.743-5.715 8.224-3.925-9.246z"/><path fill="#13110C" d="M78.008 3.658l-9.774-.743 2.052 13.567c-4.078 2.616-9.196 5.391-14.204 7.93-.081.041-.153.084-.23.123.034-.147.049-.28.045-.395-.03-.504-.209-.853-.448-1.334a3.486 3.486 0 00-.451-.642c-.188-.186-.422-.428-.904-.45-.032 0-.073.01-.109.013.468-1.182.74-2.465.74-3.817 0-1.963-.553-3.792-1.508-5.342 2.443-1.81 3.636-3.961 3.146-4.97a27.52 27.52 0 00-4.052-.767c-1.115-.67-3.154-3.555-7.005-3.558-4.708.054-11.221 3.652-13.802 7.892a9.825 9.825 0 00-1.355 4.883c.005.886.141 1.452.462 2.158.656 1.606 1.863 2.696 4.151 2.696h.18c.082 0 .164.242.248.235.63 1.753 1.716 3.411 3.115 4.566l-.093.259c-.172.499-.658.735-.763 1.691 0 .424.227.822.499 1.092.1.054.525 1.023.827 1.855.018.042.034.085.053.128a12.935 12.935 0 01-5.329 1.165c-2.24.005-4.236-.62-5.39-1.536a3.154 3.154 0 00-1.978-.687c-1.036.005-1.945.443-2.659.913-.896.595-1.847 1.167-2.612 1.723-.725.586-1.432 1.026-1.516 2.061 0 .095.009.214.042.331.363 1.15 1.59 2.166 3.228 3.155 1.636.93 3.672 1.813 5.623 1.813h.05c1.592 0 3.021-.257 4.331-.491-1.487 1.981-2.851 4.285-4.044 7.121-.499-.196-1.017-.425-1.538-.629-1.405-.545-2.832-1.105-3.96-1.515-.566-.205-1.054-.601-1.434-.726-.411-.122-.576-.449-.932-.449h-.403l-.22.556c-.402.632-.735 1.556-1.011 2.499l-3.184-.637-.218.66c-.752 2.164-1.036 4.81-1.038 7.568.009 6.021 1.375 12.593 2.812 15.901l.058.13.099.103c.312.269.432.241.622.306 1.217.278 4.8.406 8.246.506 2.687.067 5.208.102 6.165.114 1.536 1.792 3.091 3.067 4.585 3.314-.001.013-.003-.115-.004-.115h22c.903-6.623 2.197-20.06 2.197-34.215 0-1.915-.216-3.418-.595-4.744-.619-3.148 5.437-6.943 10.684-10.447l.071.479-1.43 18.545 13.668-.837 12.118.977 1.28-19.274L95.872 2.8l-9.516.961-8.348-.103zM56.124 8.319a.511.511 0 00.041.015l-.048.002.007-.017z"/><path fill="#FFF" d="M36.107 65.79c-2.093-5.553-1.867-6.903-1.867-8.033 0-2.109 1.295-4.845 3.552-7.71l11.031-.954c-.461 2.86-1.768 11.352-1.771 16.494.007 1.04.045 1.93.185 2.676l-9.902.625c-.387-.942-.727-1.788-1.023-2.563l-.205-.535zm-10.281 3.235a151.702 151.702 0 01-5.075-.215 29.947 29.947 0 01-1.717-.151c-.134-.02-.25-.037-.34-.052-1.276-3.101-2.563-9.391-2.555-14.97 0-2.359.229-4.601.749-6.409l10.472 2.275a56.18 56.18 0 00-1.495 5.354c-.737 3.207-.561 5.722 1.916 9.49l.958 1.369c.176.239.354.481.549.729.682.874 1.38 1.8 2.084 2.693a368.377 368.377 0 01-5.546-.113m68.703-27.021l-10.712-.862-12.04.743 1.309-16.964-3.079-20.343 9.887.753 6.648-.056 7.927-.799 1.233 19.886zM53.543 19.043c.027.442-.622 1.31-1.649 1.482a5.795 5.795 0 01-1.043.104c-1.056-.038-1.622-.293-1.628-1.094.002-1.898 1.219-3.109 2.339-3.113.109 0 .217.014.323.032.938.174 1.662 1.303 1.658 2.589M28.251 37.932h-.016c-1.543.006-3.414-.669-4.886-1.516-1.348-.71-2.372-1.764-2.497-2.041.103-.376 1.819-1.483 3.44-2.515.563-.379 1.252-.669 1.834-.663a1.64 1.64 0 011.057.367c1.537 1.201 3.808 1.853 6.312 1.859a14.457 14.457 0 005.967-1.311c.04.061.081.123.132.185.05.057.123.13.211.199a25.699 25.699 0 00-5.606 4.652c-1.657.459-3.594.755-5.886.785-.016-.002-.026-.002-.038-.002m6.664-18.04c-1.92-.074-2.202-.576-2.967-2.072-.199-.428-.321-1.056-.321-1.771 0-1.285.389-2.842 1.141-4.097 2.096-3.632 8.546-7.21 12.514-7.156 3.219-.003 4.69 2.426 6.424 3.452l.11.056c-3.327 1.136-6.093 3.42-8.506 5.623-3.363 3.14-6.225 6.052-8.395 5.965m18.865 5.075c-.679.673-2.109 1.771-4.915 3.411a40.8 40.8 0 01-.743.418c-1.786.59-3.594 1.259-5.375 2.104-1.036.226-1.757.269-2.114.276-.139-.265-.394-.869-.603-1.444-.316-.768-.553-1.503-1.039-2.044-.01-.013-.021-.022-.026-.03.067-.114.217-.318.384-.6 1.47-.222 7.01-1.155 14.608-3.747.084.115.188.292.259.455.056.119.101.235.125.317.012.033.017.058.023.079.001.049-.006.201-.584.805"/><path fill="#FFF" d="M50.679 64.164c-.263 1.318-.621 2.418-1.044 3.109-.312.509-.594.763-.885.865-.119-.567-.2-1.479-.191-2.552-.007-5.987 1.909-17.189 1.909-17.207l.167-.976-11.441.99c.096-.103.188-.206.285-.31l11.583-1.964c.105 1.502.315 4.877.315 8.577 0 3.283-.169 6.82-.698 9.468m-29.61-19.107c1.006.321 3.45 1.238 5.691 2.113.424.164.843.33 1.251.488-.051.134-.104.26-.151.395l-7.319-1.591a8.619 8.619 0 01.528-1.405"/><path fill="#13110C" d="M75.239 34.038h7.571v.762h-7.571zm-.666-19.1h7.571v.764h-7.571zm10.486 3.206h7.571v.759h-7.571zm-.621-6.356h7.573v.76h-7.573zm.416 22.267h7.573v.761h-7.573zm-.103-19.089h7.571v.763h-7.571zm-.132 22.275h7.571v.761h-7.571zm.47-6.372h7.571v.761h-7.571zm.466-6.369h7.575v.762h-7.575zm-.231 3.185h7.571v.763h-7.571zM73.479 8.609h7.57v.76h-7.57zm11.89 12.71h7.576v.766h-7.576zm-9.698-.053h7.57v.763h-7.57zm-1.644-9.493h7.567v.763h-7.567zm1.094 6.328h7.571v.762h-7.571zm-.146 19.14h7.568v.761h-7.568zm1.071-12.803h7.568v.761h-7.568zm-.27 3.201h7.566v.761h-7.566zm-.267 3.198h7.571v.763h-7.571zM44.967 57.648l-.751-.056.4-5.297.75.057zm-2.853.14l-.748-.06.433-5.345.747.06zm-2.84.13l-.753-.06.434-5.396.753.06zm-2.856.132l-.75-.064.467-5.442.75.065zM24.86 51.812l.75.073-.551 5.64-.75-.074zm-2.82-.362l.75.073-.563 5.69-.75-.075zm-2.828-.354l.75.072-.554 5.741-.75-.072zm24.649 9.477l.475 5.424.745-.069-.469-5.415zm-2.778.085l.528 5.455.75-.074-.528-5.457zm-2.193 5.566l-.583-5.491.746-.08.584 5.491zm-13.563-.449l-.86-5.665.745-.113.86 5.665zm-3.618-6.015l.916 5.704.743-.125-.918-5.704zm-1.785 5.388l-.975-5.74.74-.126.975 5.74zm16.183.642l.205.534.605-.071-.643-5.527-.744.09zM84.126 8.61h7.57v.763h-7.57z"/><path fill="#13110C" d="M86.356 3.763c-.457-1.095-1.814-1.509-3.999-1.509-2.08 0-3.749.597-4.35 1.404l1.886 1.673c1.446 1.056 3.083 2.66 4.234 3.467l2.089-.188c.268-.63.319-1.723.325-3.335l-.185-1.512zM27.781 64.349l.25 1.744.744-.112-.037-.263z"/></svg>